<?xml version="1.0" encoding="UTF-8" standalone="no"?>
<svg
   xmlns:osb="http://www.openswatchbook.org/uri/2009/osb"
   xmlns:dc="http://purl.org/dc/elements/1.1/"
   xmlns:cc="http://creativecommons.org/ns#"
   xmlns:rdf="http://www.w3.org/1999/02/22-rdf-syntax-ns#"
   xmlns:svg="http://www.w3.org/2000/svg"
   xmlns="http://www.w3.org/2000/svg"
   version="1.1"
   id="svg2"
   viewBox="0 0 200 200"
   height="200"
   width="200">
  <defs
     id="defs4">
    <linearGradient
       osb:paint="solid"
       id="linearGradient4153">
      <stop
         id="stop4155"
         offset="0"
         style="stop-color:#000000;stop-opacity:1;" />
    </linearGradient>
  </defs>
  <metadata
     id="metadata7">
    <rdf:RDF>
      <cc:Work
         rdf:about="">
        <dc:format>image/svg+xml</dc:format>
        <dc:type
           rdf:resource="http://purl.org/dc/dcmitype/StillImage" />
        <dc:title></dc:title>
      </cc:Work>
    </rdf:RDF>
  </metadata>
  <g
     transform="translate(0,-852.36216)"
     id="layer1">
    <path
       id="path4136"
       transform="translate(0,852.36216)"
       d="M 100.46875 11.027344 L 50.726562 97.050781 L 1.0976562 183.14258 L 100.46875 183.20898 L 199.83984 183.14258 L 150.21289 97.050781 L 100.46875 11.027344 z M 101.07227 34.705078 L 140.26758 102.48828 L 179.37109 170.32422 L 101.07227 170.37695 L 22.771484 170.32422 L 61.876953 102.48828 L 101.07227 34.705078 z "
       style="fill:#000000;fill-opacity:1;stroke:none;stroke-opacity:1" />
    <path
       id="path4136-8"
       d="m 100.71429,899.29953 -34.009988,58.81639 -33.93254,58.86318 67.942528,0.045 67.94251,-0.045 -33.9312,-58.86318 -34.01131,-58.81639 z m 0.41264,16.18906 26.79881,46.34509 26.73606,46.38122 -53.53487,0.036 -53.536228,-0.036 26.737402,-46.38122 26.798826,-46.34509 z"
       style="fill:#000000;fill-opacity:1;stroke:none;stroke-opacity:1" />
  </g>
</svg>
