<?xml version="1.0" encoding="UTF-8" standalone="no"?>
<svg
   xmlns:dc="http://purl.org/dc/elements/1.1/"
   xmlns:cc="http://creativecommons.org/ns#"
   xmlns:rdf="http://www.w3.org/1999/02/22-rdf-syntax-ns#"
   xmlns:svg="http://www.w3.org/2000/svg"
   xmlns="http://www.w3.org/2000/svg"
   xml:space="preserve"
   id="svg2"
   viewBox="-0.52 -0.464 229.05176 309.375"
   height="150"
   width="183.7793"
   version="1.0"><metadata
     id="metadata8326"><rdf:RDF><cc:Work
         rdf:about=""><dc:format>image/svg+xml</dc:format><dc:type
           rdf:resource="http://purl.org/dc/dcmitype/StillImage" /><dc:title></dc:title></cc:Work></rdf:RDF></metadata><defs
     id="defs4" /><path
     id="path12"
     d="m -75.516524,-0.46399999 0,234.75841999 136.761491,0 c -5.538039,44.88161 27.041356,74.61657 65.508553,74.61657 38.46717,0 70.51865,-33.52237 65.50853,-74.61657 l 94.82668,0 c 8.84844,0 16.43959,-7.62302 16.43957,-16.97534 l 0,-89.87183 c 0,-8.55975 -6.17995,-15.67652 -14.2522,-16.78601 L 127.81698,87.6837 63.871417,22.324207 C 49.900165,7.7410472 30.7937,-0.14697601 10.613003,-0.46399999 l -86.129527,0 z m 15.99244,27.57385199 74.197634,0 c 11.021753,0 21.106615,5.838549 27.31604,15.190794 l 18.316775,28.210325 c 4.531292,7.897273 -0.401157,15.584786 -8.874402,16.97937 l -110.956047,0 0,-60.380489 z" /><path
     id="path8328"
     d="m 127.62594,90.284031 c 0,0 148.32698,-77.387985 166.06174,-51.591992"
     style="fill:none;fill-rule:evenodd;stroke:#000000;stroke-width:10.3125;stroke-linecap:butt;stroke-linejoin:miter;stroke-miterlimit:4;stroke-dasharray:none;stroke-opacity:1" /></svg>